<svg xmlns="http://www.w3.org/2000/svg" viewBox="0 0 32 32" fill="none">
  <g>
    <rect width="32" height="32" rx="16" fill="#bfa76a"/>
    <path d="M16 7c-2.5 0-4.5 2-4.5 4.5 0 1.5 1 2.5 2.5 3v2.5h-2c-.5 0-1 .5-1 1v1c0 .5.5 1 1 1h2v2.5c-1.5.5-2.5 1.5-2.5 3C11.5 23 13.5 25 16 25s4.5-2 4.5-4.5c0-1.5-1-2.5-2.5-3V18h2c.5 0 1-.5 1-1v-1c0-.5-.5-1-1-1h-2V13c1.5-.5 2.5-1.5 2.5-3C20.5 9 18.5 7 16 7zm0 2c1.5 0 2.5 1 2.5 2.5 0 1-1 2-2.5 2s-2.5-1-2.5-2.5C13.5 10 14.5 9 16 9zm0 10c1.5 0 2.5 1 2.5 2.5 0 1.5-1 2.5-2.5 2.5s-2.5-1-2.5-2.5C13.5 20 14.5 19 16 19z" fill="#fff"/>
  </g>
</svg>
